<svg width="1286" height="1150" viewBox="0 0 1286 1150" fill="none" xmlns="http://www.w3.org/2000/svg">
<path d="M1157.11 160.426L1042.82 869.028L353.157 1006.96L170.107 137.474L1157.11 160.426Z" stroke="#FFDE00" stroke-width="72.886"/>
<path d="M1087.16 902.556L164.954 171.471L189.791 145.295L1112 876.38L1087.16 902.556Z" fill="#FFDE00" stroke="#FFDE00" stroke-width="49.4545"/>
<path d="M333.912 999.667L358.824 1025.92L1186.13 141.35L1161.22 115.096L333.912 999.667Z" fill="#FFDE00" stroke="#FFDE00" stroke-width="49.4545"/>
<path d="M253.961 588.13L638.573 588.129L638.574 560.042L251.72 559.952L253.961 588.13Z" fill="#FFDE00" stroke="#FFDE00" stroke-width="49.4545"/>
<path d="M149.969 24.7275C219.137 24.7277 275.21 80.7999 275.21 149.969C275.21 219.138 219.137 275.21 149.969 275.21C80.8 275.21 24.7276 219.138 24.7275 149.969C24.7275 80.7998 80.7999 24.7275 149.969 24.7275Z" fill="#FFDE00" stroke="#FFDE00" stroke-width="49.4545"/>
<path d="M249.942 499.618C291.503 499.618 325.193 533.31 325.193 574.87C325.193 616.43 291.502 650.122 249.942 650.122C208.382 650.122 174.691 616.43 174.69 574.87C174.69 533.31 208.382 499.618 249.942 499.618Z" fill="#FFDE00" stroke="#FFDE00" stroke-width="49.4545"/>
<path d="M724.843 449.632C794.012 449.632 850.084 505.704 850.084 574.873C850.084 644.042 794.011 700.114 724.843 700.114C655.674 700.114 599.602 644.042 599.602 574.873C599.602 505.704 655.674 449.632 724.843 449.632Z" fill="#FFDE00" stroke="#FFDE00" stroke-width="49.4545"/>
<path d="M1074.77 774.565C1130.13 774.565 1175.01 819.447 1175.01 874.812C1175.01 930.176 1130.13 975.059 1074.77 975.059C1019.4 975.059 974.52 930.176 974.52 874.812C974.52 819.447 1019.4 774.566 1074.77 774.565Z" fill="#FFDE00" stroke="#FFDE00" stroke-width="49.4545"/>
<path d="M324.923 924.534C380.287 924.534 425.17 969.416 425.17 1024.78C425.17 1080.14 380.287 1125.03 324.923 1125.03C269.558 1125.03 224.677 1080.14 224.677 1024.78C224.677 969.416 269.558 924.534 324.923 924.534Z" fill="#FFDE00" stroke="#FFDE00" stroke-width="49.4545"/>
<path d="M1160.84 59.4834C1216.21 59.4834 1261.09 104.365 1261.09 159.729C1261.09 215.094 1216.21 259.977 1160.84 259.977C1105.48 259.976 1060.6 215.094 1060.6 159.729C1060.6 104.365 1105.48 59.4835 1160.84 59.4834Z" fill="#FFDE00" stroke="#FFDE00" stroke-width="49.4545"/>
</svg>
